<svg xmlns="http://www.w3.org/2000/svg" version="1.1" xmlns:xlink="http://www.w3.org/1999/xlink" xmlns:svgjs="http://svgjs.com/svgjs" width="100%" height="100%"><svg width="100%" height="100%" viewBox="0 0 107 96" version="1.1" xmlns="http://www.w3.org/2000/svg" xmlns:xlink="http://www.w3.org/1999/xlink" xml:space="preserve" xmlns:serif="http://www.serif.com/" style="fill-rule:evenodd;clip-rule:evenodd;stroke-linecap:round;stroke-linejoin:round;stroke-miterlimit:1.5;">
    <g transform="matrix(1,0,0,1,-133.77,-328.707)">
        <g transform="matrix(0.509377,-0.136487,0.136487,0.509377,-29.6704,348.615)">
            <g transform="matrix(0.926086,0.372969,-0.371963,0.923588,90.845,-366.747)">
                <path d="M415.243,430.529C411.21,426.573 408.091,422.24 406.473,416.66C404.484,409.801 404.744,400.869 409.16,387.984C415.335,369.964 423.754,358.819 431.101,346.739C446.371,321.631 444.119,305.139 444.119,305.139C443.765,302.857 445.007,300.627 447.131,299.734C449.254,298.841 451.711,299.515 453.086,301.367C453.086,301.367 463.195,314.476 492.414,321.979C498.221,323.47 512.568,323.78 526.124,327.337C536.179,329.975 545.753,334.382 551.949,341.695C553.738,343.807 553.481,346.979 551.374,348.773C549.268,350.568 546.104,350.31 544.315,348.197C538.052,340.805 527.288,337.548 517.121,335.601C505.701,333.414 494.819,332.964 489.929,331.709C472.134,327.139 460.6,320.581 453.686,315.422C452.488,323.923 449.013,336.578 439.653,351.968C432.646,363.487 424.521,374.064 418.632,391.248C415.144,401.426 414.52,408.438 416.091,413.855C417.079,417.265 418.942,419.958 421.29,422.41C433.53,407.56 452.935,392.048 480.089,381.148C497.995,373.961 527.736,365.231 545.585,364.635C550.939,364.456 555.361,365.041 558.414,366.322C561.527,367.63 563.547,369.663 564.562,372.184C566.42,376.797 565.321,383.229 560.418,390.318C551.538,403.157 529.678,419.7 500.106,431.594C474.728,441.801 450.569,443.144 435.066,440.284C430.284,439.402 426.263,438.086 423.139,436.529C418.602,443.441 416.408,449.27 413.981,456.029C409.141,469.505 409.951,477.139 408.626,477.579C406.002,478.451 405.532,460.132 406.805,452.316C408.064,444.583 409.892,439.838 415.243,430.529ZM429.23,428.355C432.719,429.78 437.531,430.757 443.25,431.251C457.275,432.463 476.407,430.304 496.377,422.272C519.877,412.821 538.257,400.406 548.2,389.533C551.186,386.267 553.376,383.194 554.575,380.409C555.32,378.679 555.773,377.183 555.274,375.945C555.215,375.799 555.009,375.807 554.842,375.723C554.511,375.556 554.136,375.421 553.724,375.302C551.693,374.715 549.024,374.569 545.918,374.673C528.984,375.238 500.8,383.653 483.811,390.473C458.665,400.566 440.575,414.763 429.23,428.355Z"></path>
            </g>
        </g>
        <g transform="matrix(0.509377,-0.136487,0.136487,0.509377,-29.6704,348.615)">
            <g transform="matrix(0.965926,0.258819,-0.258819,0.965926,359.975,-255.887)">
                <path d="M86.265,470.264C78.069,463.432 76.806,472.536 75.202,470.146C74.193,468.643 78.595,460.121 79.053,459.159C79.789,457.616 79.796,457.685 81.187,458.278C97.981,465.436 126.827,470.327 159.234,460.714C212.481,444.918 221.768,430.151 229.241,416.372C230.557,413.946 228.864,422.311 221.526,433.983C218.181,439.303 214.019,443.576 210.866,448.704C207.715,453.829 202.61,464.754 202.61,464.754C202.031,465.797 200.795,466.286 199.659,465.92C199.659,465.92 189.825,462.382 184.787,462.862C178.822,463.429 169.262,466.441 163.875,469.325C159.25,471.801 152.464,480.164 152.464,480.164C151.734,481.108 150.439,481.405 149.371,480.873C149.371,480.873 139.102,474.978 133.565,473.992C128.028,473.007 121.514,473.377 116.151,474.961C110.789,476.544 101.392,483.492 101.392,483.492C100.382,484.127 99.064,483.96 98.244,483.093C98.244,483.093 90.193,473.538 86.265,470.264Z"></path>
            </g>
        </g>
        <g transform="matrix(0.509377,-0.136487,0.136487,0.509377,-29.6704,348.615)">
            <g transform="matrix(0.960235,0.279194,-0.279194,0.960235,371.884,-254.134)">
                <path d="M31.292,432.531C30.244,431.961 29.745,430.729 30.101,429.59C31.002,427.471 31.904,425.347 32.614,423.156C35.15,415.329 36.609,412.588 35.505,404.87C34.967,401.104 32.041,396.838 29.308,394.092C27.643,392.42 26.285,390.275 25.017,388.461C24.427,387.424 24.653,386.114 25.556,385.334C27.229,384.217 28.91,383.095 30.432,381.78C36.998,376.105 38.61,374.831 41.837,366.832C45.142,358.639 44.812,356.653 43.962,347.735C43.764,345.659 43.311,343.613 42.86,341.578C42.747,340.39 43.489,339.288 44.632,338.946C46.752,338.62 48.886,338.293 50.941,337.678C59.785,335.032 60.25,334.2 63.203,330.496C66.439,326.436 67.858,321.156 70.356,313.321C70.987,311.342 71.406,309.299 71.824,307.264C72.186,306.127 73.301,305.405 74.487,305.539C76.787,306.043 79.076,306.742 81.427,306.852C92.433,307.367 92.39,306.336 101.189,303.363C106.704,301.5 113.299,301.347 111.799,302.212C108.512,304.106 104.423,305.244 103.703,306.301C96.306,317.162 96.407,330.893 88.719,341.848C80.43,353.661 72.86,362.56 72.86,362.56C72.86,362.56 60.976,379.786 57.457,386.58C50.615,399.793 47.6,413.35 49.644,423.494C52.763,438.974 58.97,439.887 56.215,443.28C52.17,448.262 50.577,454.565 49.344,453.97C44.197,451.49 50.297,443.044 48.316,440.729C43.336,434.911 31.292,432.531 31.292,432.531Z"></path>
            </g>
        </g>
        <g transform="matrix(0.509377,-0.136487,0.136487,0.509377,-29.6704,348.615)">
            <g transform="matrix(1,0,0,1,0,1)">
                <path d="M393.633,88.992L393.633,125.146L393.633,88.992Z" style="fill:none;stroke:black;stroke-width:9.48px;"></path>
            </g>
            <g transform="matrix(1,0,0,1,0,5)">
                <path d="M381.017,117.765L393.633,84.992L406.735,117.765" style="fill:none;stroke:black;stroke-width:9.48px;"></path>
            </g>
        </g>
        <g>
            <g transform="matrix(0.839677,-0.543086,0.543086,0.839677,-187.818,153.224)">
                <path d="M157.266,394.713C165.162,386.817 173.059,378.92 180.956,371.024" style="fill:none;stroke:black;stroke-width:1px;"></path>
            </g>
            <g transform="matrix(0.839677,-0.543086,0.543086,0.839677,-184.305,153.224)">
                <path d="M157.266,394.713C165.162,386.817 173.059,378.92 180.956,371.024" style="fill:none;stroke:black;stroke-width:1px;"></path>
            </g>
            <g transform="matrix(0.9664,-0.625047,0.625047,0.9664,-232.077,111.455)">
                <path d="M157.266,394.713C165.162,386.817 173.059,378.92 180.956,371.024" style="fill:none;stroke:black;stroke-width:0.87px;"></path>
            </g>
            <g transform="matrix(1.00863,-0.652363,0.652363,1.00863,-245.458,96.6092)">
                <path d="M157.266,394.713C165.162,386.817 173.059,378.92 180.956,371.024" style="fill:none;stroke:black;stroke-width:0.83px;"></path>
            </g>
            <g transform="matrix(1.00285,-0.648625,0.648625,1.00285,-239.03,95.831)">
                <path d="M157.266,394.713C165.162,386.817 173.059,378.92 180.956,371.024" style="fill:none;stroke:black;stroke-width:0.84px;"></path>
            </g>
            <g transform="matrix(1.0036,-0.649108,0.649108,1.0036,-235.143,92.4291)">
                <path d="M157.266,394.713C165.162,386.817 173.059,378.92 180.956,371.024" style="fill:none;stroke:black;stroke-width:0.84px;"></path>
            </g>
            <g transform="matrix(0.863684,-0.558613,0.558613,0.863684,-173.906,133.424)">
                <path d="M157.266,394.713C165.162,386.817 173.059,378.92 180.956,371.024" style="fill:none;stroke:black;stroke-width:0.97px;"></path>
            </g>
            <g transform="matrix(0.986617,-0.638123,0.638123,0.986617,-220.577,94.9244)">
                <path d="M157.266,394.713C165.162,386.817 173.059,378.92 180.956,371.024" style="fill:none;stroke:black;stroke-width:0.85px;"></path>
            </g>
            <g transform="matrix(0.873149,-0.564735,0.564735,0.873149,-170.252,128.17)">
                <path d="M157.266,394.713C165.162,386.817 173.059,378.92 180.956,371.024" style="fill:none;stroke:black;stroke-width:0.96px;"></path>
            </g>
            <g transform="matrix(0.853106,-0.551771,0.551771,0.853106,-158.302,133.261)">
                <path d="M157.266,394.713C165.162,386.817 173.059,378.92 180.956,371.024" style="fill:none;stroke:black;stroke-width:0.98px;"></path>
            </g>
            <g transform="matrix(0.71454,-0.462149,0.462149,0.71454,-97.0746,171.305)">
                <path d="M157.266,394.713C165.162,386.817 173.059,378.92 180.956,371.024" style="fill:none;stroke:black;stroke-width:1.18px;"></path>
            </g>
            <g transform="matrix(0.67549,-0.436892,0.436892,0.67549,-77.1244,181.223)">
                <path d="M157.266,394.713C165.162,386.817 173.059,378.92 180.956,371.024" style="fill:none;stroke:black;stroke-width:1.24px;"></path>
            </g>
            <g transform="matrix(0.67549,-0.436892,0.436892,0.67549,-73.6114,181.223)">
                <path d="M157.266,394.713C165.162,386.817 173.059,378.92 180.956,371.024" style="fill:none;stroke:black;stroke-width:1.24px;"></path>
            </g>
            <g transform="matrix(0.588752,-0.380793,0.380793,0.588752,-34.3142,206.637)">
                <path d="M157.266,394.713C165.162,386.817 173.059,378.92 180.956,371.024" style="fill:none;stroke:black;stroke-width:1.43px;"></path>
            </g>
            <g transform="matrix(0.643522,-0.416217,0.416217,0.643522,-53.397,190.589)">
                <path d="M157.266,394.713C165.162,386.817 173.059,378.92 180.956,371.024" style="fill:none;stroke:black;stroke-width:1.3px;"></path>
            </g>
            <g transform="matrix(0.515154,-0.333191,0.333191,0.515154,3.43701,226.516)">
                <path d="M157.266,394.713C165.162,386.817 173.059,378.92 180.956,371.024" style="fill:none;stroke:black;stroke-width:1.63px;"></path>
            </g>
            <g transform="matrix(0.472008,-0.305285,0.305285,0.472008,24.75,239.158)">
                <path d="M157.266,394.713C165.162,386.817 173.059,378.92 180.956,371.024" style="fill:none;stroke:black;stroke-width:1.78px;"></path>
            </g>
            <g transform="matrix(0.373236,-0.241401,0.241401,0.373236,69.4488,266.063)">
                <path d="M157.266,394.713C165.162,386.817 173.059,378.92 180.956,371.024" style="fill:none;stroke:black;stroke-width:2.25px;"></path>
            </g>
            <g transform="matrix(0.425406,-0.275144,0.275144,0.425406,51.0022,252.812)">
                <path d="M157.266,394.713C165.162,386.817 173.059,378.92 180.956,371.024" style="fill:none;stroke:black;stroke-width:1.97px;"></path>
            </g>
            <g transform="matrix(0.161436,-0.104414,0.104414,0.161436,163.905,328.155)">
                <path d="M157.266,394.713C165.162,386.817 173.059,378.92 180.956,371.024" style="fill:none;stroke:black;stroke-width:5.2px;"></path>
            </g>
            <g transform="matrix(0.10781,-0.069729,0.069729,0.10781,189.374,344.924)">
                <path d="M157.266,394.713C165.162,386.817 173.059,378.92 180.956,371.024" style="fill:none;stroke:black;stroke-width:7.79px;"></path>
            </g>
        </g>
    </g>
</svg><style>@media (prefers-color-scheme: light) { :root { filter: none; } }
</style></svg>