<?xml version="1.0" encoding="UTF-8" standalone="no"?>
<!DOCTYPE svg PUBLIC "-//W3C//DTD SVG 1.1//EN" "http://www.w3.org/Graphics/SVG/1.1/DTD/svg11.dtd">
<svg width="100%" height="100%" viewBox="0 0 751 98" version="1.1" xmlns="http://www.w3.org/2000/svg" xmlns:xlink="http://www.w3.org/1999/xlink" xml:space="preserve" xmlns:serif="http://www.serif.com/" style="fill-rule:evenodd;clip-rule:evenodd;stroke-linecap:round;stroke-linejoin:round;stroke-miterlimit:1.5;">
    <g transform="matrix(1,0,0,1,-133.77,-328.419)">
        <g transform="matrix(0.509377,-0.136487,0.136487,0.509377,-29.6704,348.615)">
            <g transform="matrix(0.926086,0.372969,-0.371963,0.923588,90.845,-366.747)">
                <path d="M415.243,430.529C411.21,426.573 408.091,422.24 406.473,416.66C404.484,409.801 404.744,400.869 409.16,387.984C415.335,369.964 423.754,358.819 431.101,346.739C446.371,321.631 444.119,305.139 444.119,305.139C443.765,302.857 445.007,300.627 447.131,299.734C449.254,298.841 451.711,299.515 453.086,301.367C453.086,301.367 463.195,314.476 492.414,321.979C498.221,323.47 512.568,323.78 526.124,327.337C536.179,329.975 545.753,334.382 551.949,341.695C553.738,343.807 553.481,346.979 551.374,348.773C549.268,350.568 546.104,350.31 544.315,348.197C538.052,340.805 527.288,337.548 517.121,335.601C505.701,333.414 494.819,332.964 489.929,331.709C472.134,327.139 460.6,320.581 453.686,315.422C452.488,323.923 449.013,336.578 439.653,351.968C432.646,363.487 424.521,374.064 418.632,391.248C415.144,401.426 414.52,408.438 416.091,413.855C417.079,417.265 418.942,419.958 421.29,422.41C433.53,407.56 452.935,392.048 480.089,381.148C497.995,373.961 527.736,365.231 545.585,364.635C550.939,364.456 555.361,365.041 558.414,366.322C561.527,367.63 563.547,369.663 564.562,372.184C566.42,376.797 565.321,383.229 560.418,390.318C551.538,403.157 529.678,419.7 500.106,431.594C474.728,441.801 450.569,443.144 435.066,440.284C430.284,439.402 426.263,438.086 423.139,436.529C418.602,443.441 416.408,449.27 413.981,456.029C409.141,469.505 409.951,477.139 408.626,477.579C406.002,478.451 405.532,460.132 406.805,452.316C408.064,444.583 409.892,439.838 415.243,430.529ZM429.23,428.355C432.719,429.78 437.531,430.757 443.25,431.251C457.275,432.463 476.407,430.304 496.377,422.272C519.877,412.821 538.257,400.406 548.2,389.533C551.186,386.267 553.376,383.194 554.575,380.409C555.32,378.679 555.773,377.183 555.274,375.945C555.215,375.799 555.009,375.807 554.842,375.723C554.511,375.556 554.136,375.421 553.724,375.302C551.693,374.715 549.024,374.569 545.918,374.673C528.984,375.238 500.8,383.653 483.811,390.473C458.665,400.566 440.575,414.763 429.23,428.355Z"/>
            </g>
            <g transform="matrix(0.965926,0.258819,-0.258819,0.965926,359.975,-255.887)">
                <path d="M86.265,470.264C78.069,463.432 76.806,472.536 75.202,470.146C74.193,468.643 78.595,460.121 79.053,459.159C79.789,457.616 79.796,457.685 81.187,458.278C97.981,465.436 126.827,470.327 159.234,460.714C212.481,444.918 221.768,430.151 229.241,416.372C230.557,413.946 228.864,422.311 221.526,433.983C218.181,439.303 214.019,443.576 210.866,448.704C207.715,453.829 202.61,464.754 202.61,464.754C202.031,465.797 200.795,466.286 199.659,465.92C199.659,465.92 189.825,462.382 184.787,462.862C178.822,463.429 169.262,466.441 163.875,469.325C159.25,471.801 152.464,480.164 152.464,480.164C151.734,481.108 150.439,481.405 149.371,480.873C149.371,480.873 139.102,474.978 133.565,473.992C128.028,473.007 121.514,473.377 116.151,474.961C110.789,476.544 101.392,483.492 101.392,483.492C100.382,484.127 99.064,483.96 98.244,483.093C98.244,483.093 90.193,473.538 86.265,470.264Z"/>
            </g>
            <g transform="matrix(0.960235,0.279194,-0.279194,0.960235,371.884,-254.134)">
                <path d="M31.292,432.531C30.244,431.961 29.745,430.729 30.101,429.59C31.002,427.471 31.904,425.347 32.614,423.156C35.15,415.329 36.609,412.588 35.505,404.87C34.967,401.104 32.041,396.838 29.308,394.092C27.643,392.42 26.285,390.275 25.017,388.461C24.427,387.424 24.653,386.114 25.556,385.334C27.229,384.217 28.91,383.095 30.432,381.78C36.998,376.105 38.61,374.831 41.837,366.832C45.142,358.639 44.812,356.653 43.962,347.735C43.764,345.659 43.311,343.613 42.86,341.578C42.747,340.39 43.489,339.288 44.632,338.946C46.752,338.62 48.886,338.293 50.941,337.678C59.785,335.032 60.25,334.2 63.203,330.496C66.439,326.436 67.858,321.156 70.356,313.321C70.987,311.342 71.406,309.299 71.824,307.264C72.186,306.127 73.301,305.405 74.487,305.539C76.787,306.043 79.076,306.742 81.427,306.852C92.433,307.367 92.39,306.336 101.189,303.363C106.704,301.5 113.299,301.347 111.799,302.212C108.512,304.106 104.423,305.244 103.703,306.301C96.306,317.162 96.407,330.893 88.719,341.848C80.43,353.661 72.86,362.56 72.86,362.56C72.86,362.56 60.976,379.786 57.457,386.58C50.615,399.793 47.6,413.35 49.644,423.494C52.763,438.974 58.97,439.887 56.215,443.28C52.17,448.262 50.577,454.565 49.344,453.97C44.197,451.49 50.297,443.044 48.316,440.729C43.336,434.911 31.292,432.531 31.292,432.531Z"/>
            </g>
            <g>
                <g transform="matrix(1,0,0,1,0,1)">
                    <path d="M393.633,88.992L393.633,125.146L393.633,88.992Z" style="fill:none;stroke:black;stroke-width:9.48px;"/>
                </g>
                <g transform="matrix(1,0,0,1,0,5)">
                    <path d="M381.017,117.765L393.633,84.992L406.735,117.765" style="fill:none;stroke:black;stroke-width:9.48px;"/>
                </g>
            </g>
        </g>
        <g transform="matrix(1.62617,0,0,0.460831,-268.828,307.472)">
            <path d="M340.784,117.302C342.899,117.302 344.883,115.716 346.813,112.73L346.813,79.885L343.825,79.885L343.825,105.452C342.979,106.758 342,107.318 340.943,107.318C336.606,107.318 333.75,97.987 333.75,82.218C333.75,66.075 336.95,57.304 341.075,57.304C343.111,57.304 344.909,58.89 346.416,62.249L346.416,51.705C344.645,48.719 342.714,47.32 340.652,47.32C334.676,47.32 330.683,60.663 330.683,82.218C330.683,104.145 334.808,117.302 340.784,117.302Z" style="fill-rule:nonzero;"/>
            <path d="M351.599,115.902L354.587,115.902L354.614,94.628C354.614,86.043 356.041,79.792 358.871,79.792L358.871,68.035C356.782,68.035 354.984,72.233 354.217,77.739L354.085,77.739C353.952,71.674 353.371,67.941 351.599,67.941C351.07,67.941 350.436,68.408 349.986,69.061L349.986,76.432C350.198,76.339 350.383,76.152 350.594,76.152C351.44,76.152 351.599,78.112 351.599,84.457L351.599,115.902Z" style="fill-rule:nonzero;"/>
            <path d="M368.231,117.302C372.542,117.302 375.318,107.598 375.318,92.575C375.318,77.459 372.515,67.941 368.231,67.941C363.921,67.941 361.092,77.459 361.092,92.575C361.092,107.598 363.895,117.302 368.231,117.302ZM368.231,107.878C365.878,107.878 364.186,102.093 364.186,92.575C364.186,83.151 365.799,77.459 368.179,77.459C370.611,77.459 372.251,83.151 372.251,92.575C372.251,102.093 370.638,107.878 368.231,107.878Z" style="fill-rule:nonzero;"/>
            <path d="M384.282,117.209C386.371,117.209 388.169,113.476 388.936,108.064L389.095,108.064C389.2,114.036 389.888,117.302 391.554,117.302C392.083,117.302 392.717,116.836 393.167,116.276L393.167,108.811C392.955,108.998 392.77,109.091 392.559,109.091C391.739,109.091 391.554,107.131 391.554,100.786L391.554,69.341L388.566,69.341L388.539,93.228C388.539,101.999 387.059,107.691 384.837,107.691C382.51,107.691 381.77,101.533 381.77,93.415L381.77,69.341L378.782,69.341L378.782,94.348C378.782,109.557 380.686,117.209 384.282,117.209Z" style="fill-rule:nonzero;"/>
            <path d="M397.265,135.964L400.253,135.964L400.253,110.957L400.412,110.957C401.1,114.223 402.58,117.302 404.431,117.302C408.213,117.302 410.778,107.038 410.778,92.388C410.778,78.205 408.345,67.848 404.59,67.848C402.501,67.848 400.729,70.834 399.883,76.619L399.725,76.619C399.619,71.114 398.958,67.941 397.265,67.941C396.737,67.941 396.102,68.408 395.652,69.061L395.652,76.432C395.864,76.339 396.049,76.152 396.261,76.152C397.107,76.152 397.265,78.112 397.265,84.457L397.265,135.964ZM403.902,107.971C401.549,107.971 400.068,101.999 400.068,92.762C400.068,83.431 401.496,77.179 403.876,77.179C406.15,77.179 407.684,83.431 407.684,92.575C407.684,101.999 406.097,107.971 403.902,107.971Z" style="fill-rule:nonzero;"/>
            <path d="M421.037,117.395C422.65,117.395 423.972,116.556 425.559,114.13L425.559,105.732C423.999,107.878 422.306,108.438 421.222,108.438C417.97,108.438 416.674,102.373 416.674,96.121L426.22,96.121C426.273,94.721 426.379,92.388 426.379,89.496C426.379,76.712 424.184,67.848 420.191,67.848C416.33,67.848 413.58,77.552 413.58,92.388C413.58,107.505 416.172,117.395 421.037,117.395ZM416.648,88.843C416.648,82.124 418.155,76.806 420.138,76.806C422.333,76.806 423.338,81.285 423.338,87.07C423.338,87.443 423.338,88.376 423.311,88.843L416.648,88.843Z" style="fill-rule:nonzero;"/>
            <path d="M430.609,115.902L433.597,115.902L433.624,92.015C433.624,83.244 434.893,77.552 437.061,77.552C439.15,77.552 439.944,83.711 439.944,91.829L439.944,115.902L442.932,115.902L442.932,91.922C442.932,83.151 444.333,77.552 446.263,77.552C448.485,77.552 449.251,83.711 449.251,91.829L449.251,115.902L452.239,115.902L452.239,90.895C452.239,75.779 450.177,68.035 446.634,68.035C444.756,68.035 442.958,72.047 442.191,77.459L442.033,77.459C441.213,71.3 439.679,68.035 437.617,68.035C435.554,68.035 434.021,71.767 433.227,77.179L433.095,77.179C432.963,71.02 432.302,67.941 430.609,67.941C430.081,67.941 429.446,68.408 428.996,69.061L428.996,76.432C429.208,76.339 429.393,76.152 429.605,76.152C430.451,76.152 430.609,78.112 430.609,84.457L430.609,115.902Z" style="fill-rule:nonzero;"/>
            <path d="M463.187,117.395C464.8,117.395 466.122,116.556 467.708,114.13L467.708,105.732C466.148,107.878 464.456,108.438 463.372,108.438C460.119,108.438 458.824,102.373 458.824,96.121L468.369,96.121C468.422,94.721 468.528,92.388 468.528,89.496C468.528,76.712 466.333,67.848 462.34,67.848C458.48,67.848 455.73,77.552 455.73,92.388C455.73,107.505 458.321,117.395 463.187,117.395ZM458.797,88.843C458.797,82.124 460.304,76.806 462.288,76.806C464.482,76.806 465.487,81.285 465.487,87.07C465.487,87.443 465.487,88.376 465.461,88.843L458.797,88.843Z" style="fill-rule:nonzero;"/>
            <path d="M472.759,115.902L475.747,115.902L475.773,92.015C475.773,83.244 477.281,77.552 479.475,77.552C481.802,77.552 482.543,83.711 482.543,91.829L482.543,115.902L485.531,115.902L485.531,90.895C485.531,75.779 483.627,68.035 480.031,68.035C477.942,68.035 476.17,71.767 475.377,77.179L475.244,77.179C475.112,71.207 474.478,67.941 472.759,67.941C472.23,67.941 471.595,68.408 471.146,69.061L471.146,76.432C471.357,76.339 471.542,76.152 471.754,76.152C472.6,76.152 472.759,78.112 472.759,84.457L472.759,115.902Z" style="fill-rule:nonzero;"/>
            <path d="M495.87,108.251C494.283,108.251 493.516,106.012 493.516,97.987L493.516,78.579L496.848,78.579L496.848,69.248L493.516,69.248L493.516,58.237L491.269,58.237C491.136,60.197 490.793,64.209 490.634,69.248L489.021,69.248L489.021,78.579L490.528,78.579L490.528,100.133C490.528,113.85 492.855,117.302 494.971,117.302C495.658,117.302 496.716,116.742 497.35,115.902L497.35,107.598C496.98,107.971 496.213,108.251 495.87,108.251Z" style="fill-rule:nonzero;"/>
            <path d="M517.156,117.395C518.901,117.395 520.329,116.649 521.704,114.409L521.704,103.865C520.461,106.571 518.769,107.411 517.156,107.411C513.057,107.411 510.069,98.174 510.069,82.311C510.069,66.822 512.925,57.304 517.103,57.304C518.557,57.304 520.329,57.957 521.651,60.85L521.651,50.212C520.091,47.973 518.69,47.32 517.156,47.32C510.942,47.32 506.975,61.41 506.975,82.311C506.975,103.119 511.127,117.395 517.156,117.395Z" style="fill-rule:nonzero;"/>
            <path d="M530.642,117.209C532.731,117.209 534.529,113.476 535.295,108.064L535.454,108.064C535.56,114.036 536.247,117.302 537.913,117.302C538.442,117.302 539.077,116.836 539.526,116.276L539.526,108.811C539.315,108.998 539.13,109.091 538.918,109.091C538.098,109.091 537.913,107.131 537.913,100.786L537.913,69.341L534.925,69.341L534.899,93.228C534.899,101.999 533.418,107.691 531.197,107.691C528.87,107.691 528.13,101.533 528.13,93.415L528.13,69.341L525.142,69.341L525.142,94.348C525.142,109.557 527.045,117.209 530.642,117.209Z" style="fill-rule:nonzero;"/>
            <path d="M545.899,117.302C546.613,117.302 547.036,116.836 547.485,116.276L547.485,107.878C547.274,108.064 547.089,108.158 546.877,108.158C546.058,108.158 545.978,106.385 545.978,100.133L545.952,45.454L542.964,45.454L542.964,102.932C542.964,113.476 543.757,117.302 545.899,117.302Z" style="fill-rule:nonzero;"/>
            <path d="M558.195,108.251C556.608,108.251 555.841,106.012 555.841,97.987L555.841,78.579L559.173,78.579L559.173,69.248L555.841,69.248L555.841,58.237L553.594,58.237C553.461,60.197 553.118,64.209 552.959,69.248L551.346,69.248L551.346,78.579L552.853,78.579L552.853,100.133C552.853,113.85 555.18,117.302 557.296,117.302C557.983,117.302 559.041,116.742 559.675,115.902L559.675,107.598C559.305,107.971 558.538,108.251 558.195,108.251Z" style="fill-rule:nonzero;"/>
            <path d="M569.353,117.209C571.442,117.209 573.241,113.476 574.007,108.064L574.166,108.064C574.272,114.036 574.959,117.302 576.625,117.302C577.154,117.302 577.789,116.836 578.238,116.276L578.238,108.811C578.027,108.998 577.842,109.091 577.63,109.091C576.81,109.091 576.625,107.131 576.625,100.786L576.625,69.341L573.637,69.341L573.611,93.228C573.611,101.999 572.13,107.691 569.909,107.691C567.582,107.691 566.841,101.533 566.841,93.415L566.841,69.341L563.853,69.341L563.853,94.348C563.853,109.557 565.757,117.209 569.353,117.209Z" style="fill-rule:nonzero;"/>
            <path d="M582.337,115.902L585.325,115.902L585.351,94.628C585.351,86.043 586.779,79.792 589.608,79.792L589.608,68.035C587.519,68.035 585.721,72.233 584.955,77.739L584.822,77.739C584.69,71.674 584.108,67.941 582.337,67.941C581.808,67.941 581.173,68.408 580.724,69.061L580.724,76.432C580.935,76.339 581.12,76.152 581.332,76.152C582.178,76.152 582.337,78.112 582.337,84.457L582.337,115.902Z" style="fill-rule:nonzero;"/>
            <path d="M599.313,117.395C600.926,117.395 602.248,116.556 603.835,114.13L603.835,105.732C602.274,107.878 600.582,108.438 599.498,108.438C596.246,108.438 594.95,102.373 594.95,96.121L604.496,96.121C604.548,94.721 604.654,92.388 604.654,89.496C604.654,76.712 602.46,67.848 598.467,67.848C594.606,67.848 591.856,77.552 591.856,92.388C591.856,107.505 594.447,117.395 599.313,117.395ZM594.923,88.843C594.923,82.124 596.431,76.806 598.414,76.806C600.609,76.806 601.613,81.285 601.613,87.07C601.613,87.443 601.613,88.376 601.587,88.843L594.923,88.843Z" style="fill-rule:nonzero;"/>
            <path d="M611.159,117.302C611.873,117.302 612.296,116.836 612.746,116.276L612.746,107.878C612.534,108.064 612.349,108.158 612.138,108.158C611.318,108.158 611.238,106.385 611.238,100.133L611.212,45.454L608.224,45.454L608.224,102.932C608.224,113.476 609.017,117.302 611.159,117.302Z" style="fill-rule:nonzero;"/>
            <path d="M623.984,115.902L630.462,115.902C634.587,115.902 637.443,111.144 637.443,97.427C637.443,88.656 636.042,83.711 633.768,81.658L633.768,81.098C635.724,79.138 636.703,73.353 636.703,65.702C636.703,55.624 635.143,48.719 630.436,48.719L623.984,48.719L623.984,115.902ZM626.998,77.179L626.998,57.957L630.118,57.957C632.392,57.957 633.635,60.756 633.635,67.288C633.635,73.726 632.287,77.179 630.462,77.179L626.998,77.179ZM626.972,106.665L626.972,86.23L630.515,86.23C632.921,86.23 634.376,89.776 634.376,96.587C634.376,104.799 632.789,106.665 630.383,106.665L626.972,106.665Z" style="fill-rule:nonzero;"/>
            <path d="M641.859,115.902L644.847,115.902L644.873,94.628C644.873,86.043 646.301,79.792 649.131,79.792L649.131,68.035C647.042,68.035 645.244,72.233 644.477,77.739L644.345,77.739C644.212,71.674 643.631,67.941 641.859,67.941C641.33,67.941 640.695,68.408 640.246,69.061L640.246,76.432C640.457,76.339 640.643,76.152 640.854,76.152C641.7,76.152 641.859,78.112 641.859,84.457L641.859,115.902Z" style="fill-rule:nonzero;"/>
            <path d="M658.835,117.395C660.448,117.395 661.77,116.556 663.357,114.13L663.357,105.732C661.797,107.878 660.104,108.438 659.02,108.438C655.768,108.438 654.472,102.373 654.472,96.121L664.018,96.121C664.071,94.721 664.176,92.388 664.176,89.496C664.176,76.712 661.982,67.848 657.989,67.848C654.128,67.848 651.378,77.552 651.378,92.388C651.378,107.505 653.97,117.395 658.835,117.395ZM654.446,88.843C654.446,82.124 655.953,76.806 657.936,76.806C660.131,76.806 661.136,81.285 661.136,87.07C661.136,87.443 661.136,88.376 661.109,88.843L654.446,88.843Z" style="fill-rule:nonzero;"/>
            <path d="M673.802,108.251C672.215,108.251 671.448,106.012 671.448,97.987L671.448,78.579L674.78,78.579L674.78,69.248L671.448,69.248L671.448,58.237L669.201,58.237C669.068,60.197 668.725,64.209 668.566,69.248L666.953,69.248L666.953,78.579L668.46,78.579L668.46,100.133C668.46,113.85 670.787,117.302 672.902,117.302C673.59,117.302 674.648,116.742 675.282,115.902L675.282,107.598C674.912,107.971 674.145,108.251 673.802,108.251Z" style="fill-rule:nonzero;"/>
            <path d="M684.828,117.302C689.138,117.302 691.915,107.598 691.915,92.575C691.915,77.459 689.112,67.941 684.828,67.941C680.518,67.941 677.689,77.459 677.689,92.575C677.689,107.598 680.491,117.302 684.828,117.302ZM684.828,107.878C682.475,107.878 680.782,102.093 680.782,92.575C680.782,83.151 682.395,77.459 684.775,77.459C687.208,77.459 688.847,83.151 688.847,92.575C688.847,102.093 687.234,107.878 684.828,107.878Z" style="fill-rule:nonzero;"/>
            <path d="M696.145,115.902L699.133,115.902L699.16,92.015C699.16,83.244 700.667,77.552 702.862,77.552C705.189,77.552 705.929,83.711 705.929,91.829L705.929,115.902L708.917,115.902L708.917,90.895C708.917,75.779 707.013,68.035 703.417,68.035C701.328,68.035 699.557,71.767 698.763,77.179L698.631,77.179C698.499,71.207 697.864,67.941 696.145,67.941C695.617,67.941 694.982,68.408 694.532,69.061L694.532,76.432C694.744,76.339 694.929,76.152 695.141,76.152C695.987,76.152 696.145,78.112 696.145,84.457L696.145,115.902Z" style="fill-rule:nonzero;"/>
            <path d="M336.712,236.745C338.774,236.745 340.546,233.759 341.392,227.974L341.551,227.974C341.683,233.479 342.344,236.652 344.01,236.652C344.565,236.652 345.174,236.185 345.65,235.625L345.65,228.161C345.438,228.347 345.226,228.44 345.041,228.44C344.195,228.44 344.01,226.481 344.01,220.136L344.01,164.803L341.022,164.803L341.022,193.636L340.89,193.636C340.202,190.37 338.695,187.291 336.871,187.291C333.063,187.291 330.524,197.555 330.524,212.205C330.524,226.481 332.957,236.745 336.712,236.745ZM337.426,227.414C335.125,227.414 333.592,221.256 333.592,212.018C333.592,202.594 335.178,196.622 337.373,196.622C339.726,196.622 341.207,202.594 341.207,211.831C341.207,221.162 339.806,227.414 337.426,227.414Z" style="fill-rule:nonzero;"/>
            <path d="M355.724,236.745C357.337,236.745 358.659,235.905 360.246,233.479L360.246,225.081C358.686,227.227 356.993,227.787 355.909,227.787C352.657,227.787 351.361,221.722 351.361,215.47L360.907,215.47C360.96,214.071 361.066,211.738 361.066,208.845C361.066,196.062 358.871,187.198 354.878,187.198C351.017,187.198 348.267,196.902 348.267,211.738C348.267,226.854 350.859,236.745 355.724,236.745ZM351.335,208.192C351.335,201.474 352.842,196.155 354.825,196.155C357.02,196.155 358.025,200.634 358.025,206.419C358.025,206.793 358.025,207.726 357.998,208.192L351.335,208.192Z" style="fill-rule:nonzero;"/>
            <path d="M369.527,236.652C373.917,236.652 375.371,229.467 375.371,221.815C375.371,211.551 372.7,209.125 370.532,207.352C368.549,205.859 367.147,204.926 367.147,200.634C367.147,196.995 368.179,195.689 369.633,195.689C371.061,195.689 373.07,197.275 374.34,199.048L374.34,189.81C372.991,188.224 371.087,187.198 369.501,187.198C366.037,187.198 364.027,192.796 364.027,201.194C364.027,211.178 366.566,213.884 368.866,215.75C370.664,217.243 372.224,218.363 372.224,222.749C372.224,226.108 371.272,228.161 369.58,228.161C367.703,228.161 365.243,225.455 364.001,222.749L363.974,232.173C364.635,233.479 366.856,236.652 369.527,236.652Z" style="fill-rule:nonzero;"/>
            <path d="M386.424,235.252L389.412,235.252L389.412,213.977L392.611,213.977C397.794,213.977 400.227,205.766 400.227,191.117C400.227,177.027 397.979,168.069 392.611,168.069L386.424,168.069L386.424,235.252ZM389.412,204.553L389.412,177.493L392.664,177.493C395.864,177.493 397.16,182.905 397.16,191.117C397.16,199.888 395.864,204.553 392.664,204.553L389.412,204.553Z" style="fill-rule:nonzero;"/>
            <path d="M409.006,236.745C411.068,236.745 412.84,233.759 413.686,227.974L413.845,227.974C413.977,233.479 414.638,236.652 416.304,236.652C416.859,236.652 417.467,236.185 417.943,235.625L417.943,228.161C417.732,228.347 417.52,228.44 417.335,228.44C416.489,228.44 416.304,226.481 416.304,220.136L416.304,188.597L414.374,188.597C414.162,191.303 413.977,193.169 413.871,195.689L413.713,195.689C412.972,191.023 411.359,187.291 409.165,187.291C405.357,187.291 402.818,197.555 402.818,212.205C402.818,226.481 405.251,236.745 409.006,236.745ZM409.72,227.414C407.419,227.414 405.886,221.256 405.886,212.018C405.886,202.594 407.472,196.622 409.667,196.622C412.02,196.622 413.528,202.314 413.528,211.831C413.528,221.162 412.1,227.414 409.72,227.414Z" style="fill-rule:nonzero;"/>
            <path d="M426.749,256.713C432.645,256.713 433.994,244.396 433.994,228.44L433.994,188.691L431.006,188.691L430.98,212.578C430.953,221.629 429.525,227.041 427.304,227.041C424.977,227.041 424.237,220.882 424.237,212.764L424.237,188.691L421.249,188.691L421.249,213.698C421.249,228.907 423.153,236.652 426.749,236.652C428.6,236.652 430.107,234.039 430.874,230.493L431.006,230.493L431.006,232.453C431.006,243.463 429.261,247.382 426.749,247.382C425.056,247.382 423.285,246.356 422.042,244.116L422.042,253.447C423.417,255.594 425.136,256.713 426.749,256.713Z" style="fill-rule:nonzero;"/>
            <path d="M443.355,236.652C447.744,236.652 449.199,229.467 449.199,221.815C449.199,211.551 446.528,209.125 444.36,207.352C442.376,205.859 440.975,204.926 440.975,200.634C440.975,196.995 442.006,195.689 443.46,195.689C444.888,195.689 446.898,197.275 448.167,199.048L448.167,189.81C446.819,188.224 444.915,187.198 443.328,187.198C439.864,187.198 437.855,192.796 437.855,201.194C437.855,211.178 440.393,213.884 442.694,215.75C444.492,217.243 446.052,218.363 446.052,222.749C446.052,226.108 445.1,228.161 443.408,228.161C441.53,228.161 439.071,225.455 437.828,222.749L437.802,232.173C438.463,233.479 440.684,236.652 443.355,236.652Z" style="fill-rule:nonzero;"/>
            <path d="M465.091,236.745C467.153,236.745 468.925,233.759 469.771,227.974L469.929,227.974C470.062,233.479 470.723,236.652 472.389,236.652C472.944,236.652 473.552,236.185 474.028,235.625L474.028,228.161C473.817,228.347 473.605,228.44 473.42,228.44C472.574,228.44 472.389,226.481 472.389,220.136L472.389,164.803L469.401,164.803L469.401,193.636L469.268,193.636C468.581,190.37 467.074,187.291 465.249,187.291C461.441,187.291 458.903,197.555 458.903,212.205C458.903,226.481 461.336,236.745 465.091,236.745ZM465.804,227.414C463.504,227.414 461.97,221.256 461.97,212.018C461.97,202.594 463.557,196.622 465.752,196.622C468.105,196.622 469.586,202.594 469.586,211.831C469.586,221.162 468.184,227.414 465.804,227.414Z" style="fill-rule:nonzero;"/>
            <path d="M484.103,236.745C485.716,236.745 487.038,235.905 488.624,233.479L488.624,225.081C487.064,227.227 485.372,227.787 484.288,227.787C481.035,227.787 479.74,221.722 479.74,215.47L489.285,215.47C489.338,214.071 489.444,211.738 489.444,208.845C489.444,196.062 487.249,187.198 483.257,187.198C479.396,187.198 476.646,196.902 476.646,211.738C476.646,226.854 479.237,236.745 484.103,236.745ZM479.713,208.192C479.713,201.474 481.22,196.155 483.204,196.155C485.398,196.155 486.403,200.634 486.403,206.419C486.403,206.793 486.403,207.726 486.377,208.192L479.713,208.192Z" style="fill-rule:nonzero;"/>
            <path d="M516.283,235.252L520.012,235.252L527.416,168.069L524.11,168.069L518.108,225.175L517.949,225.175L516.151,208.472C513.057,179.173 511.497,158.365 505.468,158.365C501.185,158.365 498.963,168.629 498.963,181.039C498.963,188.691 499.862,195.969 501.581,201.007L503.776,194.756C502.639,191.863 501.951,186.638 501.951,181.039C501.951,173.854 503.062,167.789 505.442,167.789C509.593,167.789 510.704,184.492 513.507,209.965L516.283,235.252Z" style="fill-rule:nonzero;"/>
            <path d="M531.858,181.412C533.207,181.412 534.079,178.333 534.079,173.574C534.079,168.816 533.18,165.923 531.858,165.923C530.536,165.923 529.584,168.816 529.584,173.574C529.584,178.333 530.536,181.412 531.858,181.412ZM530.404,235.252L533.392,235.252L533.392,188.597L530.404,188.597L530.404,235.252Z" style="fill-rule:nonzero;"/>
            <path d="M541.906,236.652C542.62,236.652 543.043,236.185 543.493,235.625L543.493,227.227C543.281,227.414 543.096,227.507 542.884,227.507C542.065,227.507 541.985,225.734 541.985,219.483L541.959,164.803L538.971,164.803L538.971,222.282C538.971,232.826 539.764,236.652 541.906,236.652Z" style="fill-rule:nonzero;"/>
            <path d="M553.541,236.745C555.603,236.745 557.375,233.759 558.221,227.974L558.38,227.974C558.512,233.479 559.173,236.652 560.839,236.652C561.394,236.652 562.002,236.185 562.478,235.625L562.478,228.161C562.267,228.347 562.055,228.44 561.87,228.44C561.024,228.44 560.839,226.481 560.839,220.136L560.839,188.597L558.909,188.597C558.697,191.303 558.512,193.169 558.406,195.689L558.248,195.689C557.507,191.023 555.894,187.291 553.699,187.291C549.892,187.291 547.353,197.555 547.353,212.205C547.353,226.481 549.786,236.745 553.541,236.745ZM554.255,227.414C551.954,227.414 550.421,221.256 550.421,212.018C550.421,202.594 552.007,196.622 554.202,196.622C556.555,196.622 558.062,202.314 558.062,211.831C558.062,221.162 556.635,227.414 554.255,227.414Z" style="fill-rule:nonzero;"/>
            <path d="M567.45,181.412C568.798,181.412 569.671,178.333 569.671,173.574C569.671,168.816 568.772,165.923 567.45,165.923C566.127,165.923 565.176,168.816 565.176,173.574C565.176,178.333 566.127,181.412 567.45,181.412ZM565.995,235.252L568.983,235.252L568.983,188.597L565.995,188.597L565.995,235.252Z" style="fill-rule:nonzero;"/>
            <path d="M575.224,235.252L578.212,235.252L578.238,211.365C578.238,202.594 579.745,196.902 581.94,196.902C584.267,196.902 585.007,203.06 585.007,211.178L585.007,235.252L587.995,235.252L587.995,210.245C587.995,195.129 586.092,187.384 582.495,187.384C580.406,187.384 578.635,191.117 577.842,196.529L577.709,196.529C577.577,190.557 576.942,187.291 575.224,187.291C574.695,187.291 574.06,187.757 573.611,188.411L573.611,195.782C573.822,195.689 574.007,195.502 574.219,195.502C575.065,195.502 575.224,197.462 575.224,203.807L575.224,235.252Z" style="fill-rule:nonzero;"/>
            <path d="M598.943,236.745C600.556,236.745 601.878,235.905 603.464,233.479L603.464,225.081C601.904,227.227 600.212,227.787 599.128,227.787C595.875,227.787 594.58,221.722 594.58,215.47L604.125,215.47C604.178,214.071 604.284,211.738 604.284,208.845C604.284,196.062 602.089,187.198 598.097,187.198C594.236,187.198 591.486,196.902 591.486,211.738C591.486,226.854 594.077,236.745 598.943,236.745ZM594.553,208.192C594.553,201.474 596.06,196.155 598.044,196.155C600.238,196.155 601.243,200.634 601.243,206.419C601.243,206.793 601.243,207.726 601.217,208.192L594.553,208.192Z" style="fill-rule:nonzero;"/>
        </g>
        <g transform="matrix(0.839677,-0.543086,0.543086,0.839677,-187.818,153.224)">
            <path d="M157.266,394.713C165.162,386.817 173.059,378.92 180.956,371.024" style="fill:none;stroke:black;stroke-width:1px;"/>
        </g>
        <g transform="matrix(0.839677,-0.543086,0.543086,0.839677,-184.305,153.224)">
            <path d="M157.266,394.713C165.162,386.817 173.059,378.92 180.956,371.024" style="fill:none;stroke:black;stroke-width:1px;"/>
        </g>
        <g transform="matrix(0.9664,-0.625047,0.625047,0.9664,-232.077,111.455)">
            <path d="M157.266,394.713C165.162,386.817 173.059,378.92 180.956,371.024" style="fill:none;stroke:black;stroke-width:0.87px;"/>
        </g>
        <g transform="matrix(1.00863,-0.652363,0.652363,1.00863,-245.458,96.6092)">
            <path d="M157.266,394.713C165.162,386.817 173.059,378.92 180.956,371.024" style="fill:none;stroke:black;stroke-width:0.83px;"/>
        </g>
        <g transform="matrix(1.00285,-0.648625,0.648625,1.00285,-239.03,95.831)">
            <path d="M157.266,394.713C165.162,386.817 173.059,378.92 180.956,371.024" style="fill:none;stroke:black;stroke-width:0.84px;"/>
        </g>
        <g transform="matrix(1.0036,-0.649108,0.649108,1.0036,-235.143,92.4291)">
            <path d="M157.266,394.713C165.162,386.817 173.059,378.92 180.956,371.024" style="fill:none;stroke:black;stroke-width:0.84px;"/>
        </g>
        <g transform="matrix(0.863684,-0.558613,0.558613,0.863684,-173.906,133.424)">
            <path d="M157.266,394.713C165.162,386.817 173.059,378.92 180.956,371.024" style="fill:none;stroke:black;stroke-width:0.97px;"/>
        </g>
        <g transform="matrix(0.986617,-0.638123,0.638123,0.986617,-220.577,94.9244)">
            <path d="M157.266,394.713C165.162,386.817 173.059,378.92 180.956,371.024" style="fill:none;stroke:black;stroke-width:0.85px;"/>
        </g>
        <g transform="matrix(0.873149,-0.564735,0.564735,0.873149,-170.252,128.17)">
            <path d="M157.266,394.713C165.162,386.817 173.059,378.92 180.956,371.024" style="fill:none;stroke:black;stroke-width:0.96px;"/>
        </g>
        <g transform="matrix(0.853106,-0.551771,0.551771,0.853106,-158.302,133.261)">
            <path d="M157.266,394.713C165.162,386.817 173.059,378.92 180.956,371.024" style="fill:none;stroke:black;stroke-width:0.98px;"/>
        </g>
        <g transform="matrix(0.71454,-0.462149,0.462149,0.71454,-97.0746,171.305)">
            <path d="M157.266,394.713C165.162,386.817 173.059,378.92 180.956,371.024" style="fill:none;stroke:black;stroke-width:1.18px;"/>
        </g>
        <g transform="matrix(0.67549,-0.436892,0.436892,0.67549,-77.1244,181.223)">
            <path d="M157.266,394.713C165.162,386.817 173.059,378.92 180.956,371.024" style="fill:none;stroke:black;stroke-width:1.24px;"/>
        </g>
        <g transform="matrix(0.67549,-0.436892,0.436892,0.67549,-73.6114,181.223)">
            <path d="M157.266,394.713C165.162,386.817 173.059,378.92 180.956,371.024" style="fill:none;stroke:black;stroke-width:1.24px;"/>
        </g>
        <g transform="matrix(0.588752,-0.380793,0.380793,0.588752,-34.3142,206.637)">
            <path d="M157.266,394.713C165.162,386.817 173.059,378.92 180.956,371.024" style="fill:none;stroke:black;stroke-width:1.43px;"/>
        </g>
        <g transform="matrix(0.643522,-0.416217,0.416217,0.643522,-53.397,190.589)">
            <path d="M157.266,394.713C165.162,386.817 173.059,378.92 180.956,371.024" style="fill:none;stroke:black;stroke-width:1.3px;"/>
        </g>
        <g transform="matrix(0.515154,-0.333191,0.333191,0.515154,3.43701,226.516)">
            <path d="M157.266,394.713C165.162,386.817 173.059,378.92 180.956,371.024" style="fill:none;stroke:black;stroke-width:1.63px;"/>
        </g>
        <g transform="matrix(0.472008,-0.305285,0.305285,0.472008,24.75,239.158)">
            <path d="M157.266,394.713C165.162,386.817 173.059,378.92 180.956,371.024" style="fill:none;stroke:black;stroke-width:1.78px;"/>
        </g>
        <g transform="matrix(0.373236,-0.241401,0.241401,0.373236,69.4488,266.063)">
            <path d="M157.266,394.713C165.162,386.817 173.059,378.92 180.956,371.024" style="fill:none;stroke:black;stroke-width:2.25px;"/>
        </g>
        <g transform="matrix(0.425406,-0.275144,0.275144,0.425406,51.0022,252.812)">
            <path d="M157.266,394.713C165.162,386.817 173.059,378.92 180.956,371.024" style="fill:none;stroke:black;stroke-width:1.97px;"/>
        </g>
        <g transform="matrix(0.161436,-0.104414,0.104414,0.161436,163.905,328.155)">
            <path d="M157.266,394.713C165.162,386.817 173.059,378.92 180.956,371.024" style="fill:none;stroke:black;stroke-width:5.2px;"/>
        </g>
        <g transform="matrix(0.10781,-0.069729,0.069729,0.10781,189.374,344.924)">
            <path d="M157.266,394.713C165.162,386.817 173.059,378.92 180.956,371.024" style="fill:none;stroke:black;stroke-width:7.79px;"/>
        </g>
    </g>
</svg>
